<svg width="67" height="65" viewBox="0 0 67 65" fill="none" xmlns="http://www.w3.org/2000/svg">
<rect x="0.723145" y="0.955078" width="65.8615" height="63.9781" rx="31.9891" fill="#373737"/>
<path d="M26.1065 21.6084C27.1464 21.6084 28.1074 21.6874 28.9894 21.9242C29.8692 22.0821 30.5933 22.4115 31.2362 22.8062C31.8814 23.2033 32.3574 23.7672 32.6822 24.4913C32.998 25.2132 33.1695 26.0952 33.1695 27.0562C33.1695 28.1751 32.9303 29.1361 32.3664 29.8579C31.8814 30.5798 31.0896 31.225 30.1173 31.7009C31.4844 32.098 32.5243 32.8198 33.1582 33.7808C33.7921 34.7418 34.1981 35.9396 34.1981 37.3066C34.1981 38.4255 33.9613 39.3865 33.5552 40.1896C33.1502 40.9979 32.5423 41.6873 31.7912 42.1905C31.0693 42.6755 30.1873 43.0703 29.2263 43.3094C28.2849 43.558 27.3169 43.6913 26.3434 43.7064L15.6079 43.7222V21.6084H26.1065ZM25.4636 30.582C26.3434 30.582 27.0652 30.3452 27.6224 29.9391C28.1773 29.5331 28.4232 28.818 28.4232 27.9382C28.4232 27.451 28.3443 26.9772 28.1864 26.6592C28.0154 26.3368 27.7675 26.0617 27.4645 25.8584C27.1373 25.6799 26.7875 25.5464 26.4246 25.4613C26.0275 25.3824 25.6215 25.3824 25.1455 25.3824H20.503V30.5933C20.503 30.582 25.4658 30.582 25.4658 30.582H25.4636ZM25.7004 40.0407C26.1854 40.0407 26.6614 39.9617 27.0675 39.8828C27.4645 39.8038 27.8705 39.6437 28.1864 39.3955C28.5022 39.1474 28.7503 38.9105 28.9894 38.5158C29.1473 38.1187 29.3052 37.6337 29.3052 37.0698C29.3052 35.9509 28.9894 35.1478 28.3443 34.5839C27.7014 34.0989 26.8193 33.862 25.7794 33.862H20.503V40.0294H25.7027V40.0407H25.7004ZM41.1709 39.9617C41.816 40.6047 42.7747 40.9227 44.0538 40.9227C44.9336 40.9227 45.7366 40.6836 46.3818 40.2776C47.0247 39.7926 47.4195 39.3166 47.5774 38.8338H51.5025C50.8573 40.7535 49.8964 42.1206 48.6196 43.0026C47.3428 43.8034 45.8156 44.2794 43.9726 44.2794C42.7941 44.2846 41.6252 44.0665 40.5279 43.6365C39.5404 43.2694 38.6592 42.6633 37.9631 41.8724C37.2206 41.135 36.6692 40.2274 36.3569 39.2286C35.9622 38.1887 35.793 37.0698 35.793 35.7817C35.793 34.5839 35.9509 33.4537 36.3569 32.4138C36.763 31.3761 37.3179 30.4918 38.042 29.691C38.7639 28.9691 39.6459 28.324 40.6069 27.9269C41.6784 27.5003 42.8215 27.2821 43.9748 27.284C45.3419 27.284 46.5397 27.5209 47.5796 28.0849C48.6173 28.6488 49.4226 29.285 50.0656 30.2459C50.7085 31.1257 51.1844 32.1656 51.5115 33.2868C51.6694 34.4057 51.7484 35.5336 51.6694 36.8126H40.052C40.052 38.121 40.5257 39.3166 41.1709 39.9617V39.9617ZM46.2239 31.543C45.6599 30.9791 44.7757 30.661 43.7357 30.661C43.0139 30.661 42.4589 30.8189 41.9739 31.058C41.4889 31.2949 41.1709 31.622 40.855 31.9378C40.5602 32.2474 40.3639 32.6376 40.2911 33.0589C40.2099 33.4537 40.1332 33.7808 40.1332 34.0966H47.3428C47.1849 32.9101 46.7788 32.107 46.2216 31.543H46.2239ZM39.1699 23.1333H48.1436V25.2922H39.1699V23.1333V23.1333Z" fill="white"/>
</svg>
