<svg width="66" height="65" viewBox="0 0 66 65" fill="none" xmlns="http://www.w3.org/2000/svg">
<rect x="0.0825195" y="0.955078" width="65.8615" height="63.9781" rx="31.9891" fill="#373737"/>
<path d="M35.4767 35.4772C33.1487 37.8792 32.9794 40.8739 32.7784 47.4346C38.8946 47.4346 43.1167 47.4134 45.2966 45.2971C47.4129 43.1172 47.4341 38.694 47.4341 32.7788C40.8734 32.9905 37.8788 33.1492 35.4767 35.4772M17.8052 32.7788C17.8052 38.694 17.8263 43.1172 19.9427 45.2971C22.1225 47.4134 26.3446 47.4346 32.4609 47.4346C32.2493 40.8739 32.0905 37.8792 29.7626 35.4772C27.3605 33.1492 24.3659 32.9799 17.8052 32.7788M32.4609 17.8057C26.3552 17.8057 22.1225 17.8268 19.9427 19.9432C17.8263 22.123 17.8052 26.5462 17.8052 32.4614C24.3659 32.2498 27.3605 32.091 29.7626 29.763C32.0905 27.361 32.2598 24.3664 32.4609 17.8057M35.4767 29.763C33.1487 27.361 32.9794 24.3664 32.7784 17.8057C38.8946 17.8057 43.1167 17.8268 45.2966 19.9432C47.4129 22.123 47.4341 26.5462 47.4341 32.4614C40.8734 32.2498 37.8788 32.091 35.4767 29.763" fill="white"/>
</svg>
