<svg width="25" height="22" viewBox="0 0 25 22" fill="none" xmlns="http://www.w3.org/2000/svg">
<path d="M23.2879 4.19752C22.9141 3.33842 22.9691 2.88094 22.2951 2.22661C21.6206 1.57032 20.1894 0.614135 19.3166 0.255699C18.4116 -0.117452 17.3182 0.25346 16.3382 0.255699C14.9633 0.255699 13.5326 0.535304 12.3669 1.24115C12.088 1.41001 12.6179 1.03909 12.3669 1.24115C12.1159 1.03909 11.653 1.41001 11.3741 1.24115C10.2084 0.535304 8.77764 0.255699 7.40279 0.255699C6.41279 0.255699 5.33067 -0.117987 4.42433 0.255699C3.54867 0.615545 3.11635 1.56782 2.43869 2.22661C1.7638 2.88021 0.825835 3.33787 0.453043 4.19752C0.0654096 5.0916 0.453043 6.17677 0.453043 7.15389C0.453043 8.07564 0.0765645 9.13313 0.453043 10.1103C0.76817 10.9268 0.868597 11.2258 1.44586 12.0812C2.36057 13.4347 3.85546 15.5774 5.41715 17.0084C8.00509 19.3807 10.2725 20.8838 10.3813 20.9503H11.3741C11.6669 21.1357 12.0741 21.1357 12.3669 20.9503H13.3597C13.4685 20.8811 15.7331 19.3807 18.3238 17.0084C19.8855 15.5774 21.3804 13.4347 22.2951 12.0812C22.8724 11.2258 22.9756 10.9268 23.2879 10.1103C23.6644 9.13313 24.2808 8.07564 24.2808 7.15389C24.2835 6.17677 23.6756 5.0916 23.2879 4.19752Z" fill="#E761BB"/>
</svg>
