<svg width="822" height="120" viewBox="0 0 822 120" fill="none" xmlns="http://www.w3.org/2000/svg">
<path d="M260.634 2.3844V86.3844H244.234V27.2844L218.134 86.3844H204.634L178.534 27.2844V86.3844H162.134V2.3844H184.634L211.934 63.3844L239.234 2.3844H260.634Z" fill="black"/>
<path d="M320.434 0.584442C333.934 0.584442 344.834 5.38444 353.334 15.0844C361.734 24.6844 365.234 36.3844 363.734 50.0844H294.234C295.234 56.5844 298.534 62.3844 303.634 66.5844C313.034 74.0844 326.134 74.9844 336.534 68.8844C340.834 66.1844 344.334 62.4844 346.634 57.8844L361.134 64.2844C357.434 71.2844 351.934 77.2844 345.234 81.3844C338.034 85.6844 329.834 87.9844 321.434 87.7844C308.834 87.7844 298.234 83.5844 289.734 75.2844C281.334 67.1844 276.634 55.8844 276.934 44.1844C276.534 20.4844 295.334 0.884436 319.134 0.484436C319.434 0.584436 319.934 0.584442 320.434 0.584442ZM320.434 15.5844C314.434 15.4844 308.534 17.5844 303.934 21.3844C299.234 25.2844 296.034 30.6844 294.634 36.5844H346.234C345.034 30.6844 341.734 25.2844 337.134 21.3844C332.434 17.4844 326.534 15.4844 320.434 15.5844Z" fill="black"/>
<path d="M415.534 86.1844H398.334V17.4844H369.334V2.28442H444.234V17.5844H415.434V86.1844H415.534Z" fill="black"/>
<path d="M504.734 0.584456C515.934 0.384456 526.634 4.88443 534.234 13.1844C542.134 21.5844 546.134 31.9844 546.134 44.2844C546.134 56.6844 542.134 66.9844 534.234 75.3844C526.634 83.5844 515.934 88.0844 504.734 87.8844C492.234 87.8844 482.234 83.1844 474.834 73.7844V119.084H457.634V2.38444H474.934V14.8844C482.334 5.38444 492.234 0.584456 504.734 0.584456ZM501.634 71.8844C508.834 72.0844 515.634 69.1844 520.634 63.9845C530.834 52.7845 530.834 35.5844 520.634 24.3844C510.134 13.8844 493.034 13.8844 482.534 24.3844C472.334 35.5844 472.334 52.7845 482.534 63.9845C487.534 69.2845 494.434 72.0844 501.634 71.8844Z" fill="black"/>
<path d="M579.534 61.3844L626.034 2.28442H642.934V86.2844H625.634V27.1844L579.134 86.2844H562.334V2.38443H579.634V61.3844H579.534Z" fill="black"/>
<path d="M739.734 2.38443L709.334 43.0844L742.334 86.2844H721.434L694.134 51.9844H679.534V86.2844H662.334V2.28442H679.534V36.4844H694.134L720.734 2.28442H739.734V2.38443Z" fill="black"/>
<path d="M787.234 0.584473C797.234 0.584473 805.534 3.18447 811.834 8.48447C818.134 13.7845 821.434 21.2844 821.434 31.1844V86.1844H804.234V73.6844C797.334 83.0844 787.634 87.7845 775.034 87.7845C767.034 87.7845 760.534 85.6845 755.434 81.3845C750.434 77.1845 747.634 70.8845 747.834 64.2845C747.834 56.0845 750.734 49.8845 756.534 45.7845C762.334 41.6845 769.734 39.0844 778.734 38.1844L795.034 36.5845C801.134 36.0845 804.234 33.2845 804.234 28.3845C804.334 24.5845 802.634 20.9844 799.534 18.6844C795.934 16.1844 791.634 14.8845 787.334 15.0845C782.634 14.9845 778.034 16.2845 774.234 18.9845C770.534 21.7845 768.134 25.8845 767.434 30.4845L750.334 26.3845C751.734 18.6845 756.134 11.8845 762.634 7.58447C769.234 2.98447 777.434 0.584473 787.234 0.584473ZM778.634 73.8845C785.334 73.9845 791.934 71.4845 796.734 66.7845C801.434 62.4845 804.134 56.4845 804.134 50.0845V46.7845C802.734 48.0845 799.534 48.9845 794.534 49.4845L778.634 51.5845C775.034 51.8845 771.634 53.1845 768.734 55.2845C766.334 57.0845 764.934 60.0845 765.034 63.0845C764.934 66.1845 766.334 69.0845 768.734 70.9845C771.634 73.0845 775.134 74.0845 778.634 73.8845Z" fill="black"/>
<path d="M26.7342 16.2845C26.7342 14.6845 27.0342 12.9845 27.6342 11.4845L1.83425 65.9845C0.0342488 69.7845 0.134247 74.2845 2.23425 77.9845C-1.26575 71.4845 1.13425 63.3845 7.63425 59.8845C14.1342 56.3845 22.2342 58.7845 25.7342 65.2845C26.7342 67.1845 27.3342 69.3845 27.3342 71.5845C27.3342 72.4845 27.2343 73.3845 27.0343 74.2845L40.1342 46.4845L28.5343 22.8845C27.3342 20.8845 26.7342 18.5845 26.7342 16.2845Z" fill="#FBE6EB"/>
<path d="M80.6343 13.9845L67.2343 41.4845L78.6343 64.3845C79.4343 65.5845 80.0343 66.8845 80.3343 68.2845C80.9343 70.2845 80.9343 72.3845 80.5343 74.3845L93.9343 46.8845L81.6343 22.0845C80.3343 19.5845 80.0343 16.6845 80.6343 13.9845Z" fill="#F2B8E0"/>
<path d="M54.9343 66.4845C55.1343 65.9845 55.3343 65.5844 55.6343 65.1844L67.2343 41.4845L53.1343 13.0845C53.4343 14.0845 53.5343 15.1845 53.5343 16.2845C53.5343 19.1845 52.5343 22.0845 50.7343 24.3845L40.2343 46.4845L54.0343 74.2845C53.4343 71.6845 53.8343 68.9845 54.9343 66.4845Z" fill="#F3CCE0"/>
<path d="M40.1342 29.6844C35.3342 29.6844 30.8342 27.0845 28.5342 22.8845L40.2342 46.5845L50.7342 24.4845C48.2342 27.7845 44.2342 29.6844 40.1342 29.6844Z" fill="#F1BFD5"/>
<path d="M67.2342 41.4845L55.6342 65.1845C59.2342 58.6845 67.3342 56.3845 73.8342 59.9845C75.7342 61.0845 77.4342 62.5845 78.6342 64.4845L67.2342 41.4845Z" fill="#EDA6CE"/>
<path d="M120.634 58.2845C125.834 58.2845 130.634 61.3845 132.834 66.0845C132.734 65.6845 132.534 65.2845 132.334 64.9845L107.134 14.1844C107.234 14.7844 107.334 15.3845 107.334 16.0845C107.334 16.1845 107.334 16.1845 107.334 16.2845V16.4845C107.334 18.3845 106.934 20.3845 106.134 22.0845L93.9343 46.8845L107.634 74.4845C106.034 67.2845 110.534 60.1845 117.734 58.5845C118.634 58.3845 119.634 58.2845 120.634 58.2845Z" fill="#EBFCB7"/>
<path d="M93.9343 29.6845C86.5343 29.6845 80.5343 23.6845 80.5343 16.2845C80.5343 15.3845 80.6343 14.3845 80.8343 13.4845L80.6343 13.9845C80.0343 16.7845 80.3343 19.5845 81.6343 22.1845L93.9343 46.9845L106.034 22.0845C106.934 20.2845 107.334 18.3845 107.234 16.4845C107.234 23.7845 101.234 29.6845 93.9343 29.6845Z" fill="#E5D4A4"/>
<path d="M132.834 66.1844C129.734 59.4844 121.834 56.4845 115.134 59.5845C108.434 62.6845 105.434 70.5844 108.534 77.2844C111.634 83.9844 119.534 86.9844 126.234 83.8844C131.034 81.6844 134.034 76.8844 134.034 71.6844C134.034 69.7844 133.634 67.8844 132.834 66.1844Z" fill="#293475"/>
<path d="M14.0342 58.2844C6.63425 58.2844 0.634247 64.2844 0.634247 71.6844C0.634247 73.8844 1.13425 76.0844 2.23425 77.9844L2.33425 78.0844L2.43425 78.3844C4.53425 81.9844 8.23425 84.3844 12.4342 84.8844H12.5342H12.9342C13.3342 84.8844 13.6342 84.8844 14.0342 84.8844C20.3342 84.8844 25.8342 80.3844 27.1342 74.1844C28.6342 66.9844 23.9342 59.8844 16.7342 58.3844C15.8342 58.3844 14.9342 58.2844 14.0342 58.2844Z" fill="#F6C9D2"/>
<path d="M80.7343 71.5845C80.7343 70.4845 80.6343 69.3845 80.3343 68.2845C78.5343 61.0845 71.2343 56.7845 64.0343 58.6845C60.4343 59.5845 57.4343 61.9845 55.6343 65.1845C55.4343 65.5845 55.1343 66.0845 54.9343 66.4845C52.1343 73.2845 55.4343 81.0845 62.2343 83.8845C68.8343 86.5845 76.4343 83.5845 79.4343 77.1845C79.8343 76.3845 80.1343 75.5845 80.3343 74.6845C80.5343 73.6845 80.7343 72.6845 80.7343 71.5845Z" fill="#E761BB"/>
<path d="M28.5342 22.8845C32.1342 29.2845 40.3342 31.5845 46.7342 27.9845C53.1342 24.3845 55.4342 16.1845 51.8342 9.78445C48.2342 3.38445 40.0342 1.08444 33.6342 4.68444C29.4342 7.08444 26.8342 11.4845 26.8342 16.2845C26.7342 18.5845 27.3342 20.8845 28.5342 22.8845Z" fill="#EB9DC0"/>
<path d="M80.5342 16.2845C80.6342 23.6845 86.7342 29.5845 94.1342 29.4845C101.334 29.3845 107.134 23.5845 107.334 16.4845V16.2845C107.334 16.1845 107.334 16.1845 107.334 16.0845C107.334 15.4845 107.234 14.8845 107.134 14.1845C105.934 6.88446 99.0342 1.98446 91.7342 3.18446C86.9342 3.98446 83.0342 7.28447 81.3342 11.7845C80.8342 13.1845 80.5342 14.7845 80.5342 16.2845Z" fill="#D3F65D"/>
</svg>
