<svg width="39" height="39" viewBox="0 0 39 39" fill="none" xmlns="http://www.w3.org/2000/svg">
<circle cx="19.6787" cy="19.7612" r="19.0923" fill="#232121"/>
<path fill-rule="evenodd" clip-rule="evenodd" d="M9.09678 15.0527C8.97852 15.695 8.97852 16.4655 8.97852 18.0067C8.97852 19.5478 8.97852 20.3184 9.09678 20.9607C9.63423 23.8797 11.9183 26.1638 14.8373 26.7012C15.4797 26.8195 16.2502 26.8195 17.7913 26.8195H21.0387C21.108 26.8195 21.1752 26.8432 21.2291 26.8866L25.4191 30.2604C25.6178 30.4203 25.9132 30.2789 25.9132 30.0238V26.4999C25.9132 26.3762 25.9885 26.2655 26.1017 26.2157C28.2409 25.2762 29.8245 23.3271 30.2602 20.9607C30.3784 20.3184 30.3784 19.5478 30.3784 18.0067C30.3784 16.4655 30.3784 15.695 30.2602 15.0527C29.7227 12.1336 27.4387 9.84956 24.5196 9.31211C23.8773 9.19385 23.1067 9.19385 21.5656 9.19385H17.7913C16.2502 9.19385 15.4797 9.19385 14.8373 9.31211C11.9183 9.84956 9.63423 12.1336 9.09678 15.0527Z" fill="#4D4B4B"/>
<path fill-rule="evenodd" clip-rule="evenodd" d="M23.3838 15.3279C23.3838 15.1819 23.2654 15.0635 23.1194 15.0635H16.2371C16.091 15.0635 15.9727 15.1819 15.9727 15.3279V17.2205C15.9727 17.3665 16.091 17.4849 16.2371 17.4849H18.0806C18.2267 17.4849 18.345 17.6033 18.345 17.7493V22.1942C18.345 22.3403 18.4634 22.4587 18.6095 22.4587H20.731C20.877 22.4587 20.9954 22.3403 20.9954 22.1942V17.7493C20.9954 17.6033 21.1138 17.4849 21.2599 17.4849H23.1194C23.2654 17.4849 23.3838 17.3665 23.3838 17.2205V15.3279Z" fill="white"/>
</svg>
