<svg width="39" height="39" viewBox="0 0 39 39" fill="none" xmlns="http://www.w3.org/2000/svg">
<circle cx="19.4941" cy="19.7612" r="19.0923" fill="#232121"/>
<path fill-rule="evenodd" clip-rule="evenodd" d="M25.1494 12.4659C25.3623 12.3763 25.5953 12.3454 25.8242 12.3764C26.0531 12.4075 26.2695 12.4993 26.4509 12.6423C26.6323 12.7853 26.772 12.9743 26.8556 13.1897C26.9391 13.4051 26.9634 13.6389 26.9259 13.8668L24.9719 25.7188C24.7824 26.862 23.528 27.5176 22.4796 26.9482C21.6025 26.4717 20.2999 25.7377 19.1282 24.9718C18.5424 24.5884 16.7478 23.3608 16.9684 22.4872C17.1579 21.7403 20.1733 18.9334 21.8963 17.2646C22.5726 16.609 22.2642 16.2308 21.4655 16.8339C19.4815 18.3312 16.2981 20.6082 15.2453 21.2492C14.3166 21.8143 13.8324 21.9108 13.2535 21.8143C12.1973 21.6386 11.2177 21.3663 10.4182 21.0347C9.33787 20.5867 9.39043 19.1014 10.4174 18.6689L25.1494 12.4659Z" fill="white"/>
</svg>
