<svg width="67" height="65" viewBox="0 0 67 65" fill="none" xmlns="http://www.w3.org/2000/svg">
<rect x="0.902832" y="0.955078" width="65.8615" height="63.9781" rx="31.9891" fill="#373737"/>
<path fill-rule="evenodd" clip-rule="evenodd" d="M41.7767 15.4446C38.664 16.3342 36.3893 19.114 36.0331 22.4638C35.6048 26.4918 37.998 30.179 41.7528 31.2765C43.3756 31.7508 45.7635 31.5271 47.1846 30.7676C47.9634 30.3513 49.029 29.4789 49.5022 28.8698L49.9088 28.3463L48.9649 27.5689C48.4457 27.1414 48.003 26.7916 47.981 26.7916C47.959 26.7916 47.685 27.045 47.3721 27.3548C44.787 29.9146 40.7923 29.2139 39.3291 25.9439C38.2566 23.5467 38.7167 20.8303 40.492 19.079C41.1272 18.4522 41.7121 18.1174 42.5949 17.8749C43.7696 17.5522 45.3955 17.728 46.4413 18.2907L46.8857 18.5298V19.8854V21.2412H48.1734H49.4611V19.3012V17.3613L49.0412 16.9912C48.5101 16.5231 47.034 15.766 46.1579 15.5123C45.7631 15.398 44.8858 15.2969 44.0304 15.2671C42.8349 15.2255 42.4322 15.2573 41.7767 15.4446ZM18.8927 16.8693V18.1707L19.2006 18.1791C19.3699 18.1836 19.8864 18.1828 20.3483 18.177C20.8102 18.1712 21.2608 18.2168 21.3495 18.2782C21.4383 18.3396 22.5013 21.3033 23.7116 24.8641L25.9121 31.3383H27.125H28.3377L30.6586 24.784L32.9793 18.2298L34.222 18.1963L35.4645 18.1629V16.8678V15.5726L33.2531 15.5746L31.0416 15.5765L29.1972 21.2524C28.1829 24.3741 27.3218 26.9483 27.284 26.9731C27.246 26.9978 26.382 24.4561 25.3639 21.3249L23.5128 15.6317L21.2028 15.5998L18.8927 15.5678V16.8693ZM19.9245 35.9121L19.9564 37.1249L21.1601 37.1584L22.3638 37.192V42.4432V47.6944H21.1283H19.8928L19.9246 48.9639L19.9564 50.2334L25.639 50.264L31.3216 50.2946V48.9945V47.6944H28.1304H24.9392V44.5896C24.9392 41.1525 25.0079 40.6389 25.6343 39.3995C26.0036 38.6687 26.7396 37.8951 27.4025 37.5407C27.7522 37.3536 28.7829 37.0658 29.1026 37.0658C29.1854 37.0658 29.2069 37.442 29.1701 38.2468L29.1162 39.4277H30.3868H31.6575V37.0658V34.7039L30.2298 34.7054C28.6187 34.7069 27.9804 34.8454 26.9723 35.4122C26.3344 35.7707 25.3334 36.7514 24.9227 37.4201C24.7448 37.7098 24.74 37.6986 24.6706 36.8297C24.6318 36.3425 24.5881 35.6782 24.5737 35.3535L24.5472 34.763L22.2199 34.7311L19.8926 34.6991L19.9245 35.9121ZM34.4568 36.062V37.4201H35.5765H36.6962V41.5877C36.6962 46.0636 36.7348 46.4518 37.3113 47.7833C37.6456 48.5554 38.5391 49.5659 39.2424 49.9673C40.1825 50.5039 40.9689 50.6774 42.2254 50.6257C43.1653 50.587 43.4718 50.5238 44.0226 50.2554C44.8969 49.8293 45.5167 49.2802 46.0544 48.4556L46.4938 47.7819L46.6837 49.0076C46.7882 49.6818 46.8763 50.2479 46.8797 50.2656C46.883 50.2833 47.7801 50.2833 48.8732 50.2656L50.8607 50.2334L50.8925 48.9639L50.9243 47.6944H49.9306H48.9367L48.8632 45.3029C48.8228 43.9877 48.7897 41.0649 48.7896 38.8077L48.7892 34.7039H46.2139H43.6385V36.062V37.4201H44.9262H46.2139V40.6517C46.2139 42.4289 46.1628 44.1693 46.1003 44.5193C45.854 45.8996 44.9965 47.1373 43.8463 47.773C43.3261 48.0604 43.1204 48.1044 42.2948 48.1046C41.1527 48.1048 40.5746 47.841 40.0528 47.0813C39.3587 46.0708 39.343 45.9245 39.2981 40.0477L39.2573 34.7039H36.857H34.4568V36.062ZM14.8266 47.661C14.7976 47.7118 14.7665 48.3246 14.7573 49.0229L14.7407 50.2924H16.0926H17.4444L17.4127 48.9639L17.381 47.6353L16.1302 47.602C15.4422 47.5837 14.8556 47.6103 14.8266 47.661Z" fill="white"/>
</svg>
