<svg width="39" height="39" viewBox="0 0 39 39" fill="none" xmlns="http://www.w3.org/2000/svg">
<circle cx="19.8633" cy="19.7612" r="19.0923" fill="#232121"/>
<path fill-rule="evenodd" clip-rule="evenodd" d="M29.7418 14.5396C29.8851 14.0685 29.7418 13.7217 29.0559 13.7217H26.7911C26.2148 13.7217 25.9491 14.0211 25.805 14.3515C25.805 14.3515 24.6532 17.1089 23.0217 18.9001C22.4937 19.4194 22.2538 19.5842 21.9656 19.5842C21.8216 19.5842 21.605 19.4194 21.605 18.9475V14.5396C21.605 13.9736 21.4463 13.7217 20.9666 13.7217H17.405C17.0452 13.7217 16.8287 13.984 16.8287 14.2333C16.8287 14.7691 17.6449 14.8933 17.7286 16.4015V19.6783C17.7286 20.397 17.5966 20.5272 17.3084 20.5272C16.5405 20.5272 14.6726 17.7569 13.5639 14.587C13.3491 13.9702 13.1317 13.7217 12.5528 13.7217H10.2863C9.63918 13.7217 9.50977 14.0211 9.50977 14.3515C9.50977 14.9399 10.2776 17.863 13.086 21.7291C14.9582 24.3692 17.594 25.8005 19.9951 25.8005C21.435 25.8005 21.6128 25.483 21.6128 24.9352V22.9396C21.6128 22.3037 21.7491 22.1769 22.2055 22.1769C22.542 22.1769 23.1175 22.3425 24.4617 23.6151C25.9974 25.1241 26.2502 25.8005 27.1147 25.8005H29.3795C30.0266 25.8005 30.351 25.483 30.1646 24.8549C29.9593 24.2303 29.2259 23.3235 28.2535 22.2476C27.7255 21.6351 26.9335 20.975 26.6928 20.6446C26.3572 20.221 26.4529 20.032 26.6928 19.655C26.6928 19.655 29.4537 15.8363 29.741 14.5396H29.7418Z" fill="white"/>
</svg>
